<?xml version="1.0" encoding="UTF-8"?>
<!-- Created with Inkscape (http://www.inkscape.org/) -->
<svg width="40.19mm" height="40.19mm" version="1.1" viewBox="0 0 40.19 40.19" xmlns="http://www.w3.org/2000/svg" xmlns:xlink="http://www.w3.org/1999/xlink">
 <defs>
  <linearGradient id="linearGradient68542-0" x1="82.848" x2="134.46" y1="213.14" y2="184" gradientUnits="userSpaceOnUse">
   <stop stop-color="#ccc" offset="0"/>
   <stop stop-color="#e3dedb" stop-opacity="0" offset="1"/>
  </linearGradient>
 </defs>
 <g transform="translate(-103.7 -73.35)">
  <g font-weight="bold" stroke-width=".26458">
   <text x="44.618118" y="72.887611" font-family="'Times New Roman'" font-size="6.35px" style="line-height:1.25" xml:space="preserve"><tspan x="44.618118" y="72.887611" font-family="'Cascadia Code'" font-weight="bold" stroke-width=".26458"/></text>
   <text x="94.004585" y="196.52408" font-family="'Times New Roman'" font-size="14.111px" style="line-height:1.25" xml:space="preserve"><tspan x="94.004585" y="196.52408" stroke-width=".26458"/></text>
   <text x="101.4977" y="178.81306" font-family="Nyala" font-size="14.111px" style="line-height:1.25" xml:space="preserve"><tspan x="101.4977" y="178.81306" font-family="Nyala" font-weight="bold" stroke-width=".26458"/></text>
  </g>
  <g fill="#003aff" stroke="#162d9b" stroke-width=".26458">
   <circle cx="38.147" cy="108.82" r=".0061085"/>
   <circle cx="38.147" cy="108.82" r=".0061085"/>
   <circle cx="37.295" cy="106.78" r=".0061085"/>
   <circle cx="37.295" cy="106.78" r=".0061085"/>
  </g>
  <text x="68.885605" y="104.64822" fill="#000000" font-family="sans-serif" font-size="10.583px" stroke-width=".26458" style="line-height:1.25" xml:space="preserve"><tspan x="68.885605" y="104.64822" stroke-width=".26458"/></text>
  <g transform="translate(-128.06 60.626)">
   <text x="69.318932" y="157.96248" fill="#000000" font-family="sans-serif" font-size="15.026px" stroke-width=".37564" style="line-height:1.25" xml:space="preserve"><tspan x="69.318932" y="157.96248" font-family="'Lucida Handwriting'" stroke-width=".37564">Yi</tspan></text>
   <path d="m79.616 147.29 0.04711 0.46493-1.4149 4.305-1.9869 0.96335s0.17413 3.1448-0.6623 4.3494c-0.11314 0.16293-0.3307 0.22997-0.51992 0.28948-0.21647 0.0681-0.67728 0.0689-0.67728 0.0689l1.4982-5.37 2.7094-2.288z" stroke="#000" stroke-width=".26458px"/>
  </g>
  <text x="49.26059" y="255.55121" fill="#000000" font-family="'Lucida Handwriting'" font-size="20.051px" stroke-width=".50128" style="line-height:1.25" xml:space="preserve"><tspan x="49.26059" y="255.55121" fill="#1a1a1a">Dokumentasi</tspan><tspan x="49.26059" y="281.87332" font-size="15.065px"/></text>
  <text x="51.442734" y="269.57922" fill="#1a1a1a" font-family="'Lucida Handwriting'" font-size="9.5994px" stroke-width=".50128" style="line-height:1.25" xml:space="preserve"><tspan x="51.442734" y="269.57922">membuat kita lebih baik</tspan><tspan x="51.442734" y="282.18094"/></text>
  <g transform="matrix(1.3787 0 0 1.3787 -5.5084 -89.333)">
   <g transform="matrix(.74235 0 0 .74235 2.9939 139.31)">
    <g transform="matrix(1.0247 0 0 .97588 -16.859 4.5759)" fill="#f04" stroke-opacity=".5257" stroke-width=".9891" aria-label="D">
     <path d="m55.214 137.68c-0.51263 3.8365-1.7529 7.9788-3.7207 12.427-1.7859 4.0514-3.7703 7.5241-5.9531 10.418-2.1828 2.8773-13.513 2.1032-14.836 2.1197-1.6371 0-3.9688-1.017-6.9949-3.051-0.23151-0.16537-0.34727-0.35554-0.34727-0.57051 0-0.52917 0.30592-0.79375 0.91777-0.79375 0.16536 0 0.33073 0.0413 0.49609 0.12402 1.2402 0.77722 2.6128 1.2072 4.1176 1.2898 2.0671 0.0992 14.29-0.7141 17.515-6.8822 3.1915-6.0854 5.0436-11.518 5.5562-16.297 0.16536-1.5379-0.66146-2.6789-2.4805-3.423-0.44648-0.16536-0.81856-0.23151-1.1162-0.19844-3.1915 0.44649-6.2756 1.604-9.2521 3.4727-1.5544 3.7042-3.1254 8.0863-4.7129 13.146-1.7363 5.5232-2.9931 10.302-3.7703 14.337-0.16536 0.82683-0.51263 1.2402-1.0418 1.2402-0.19844 0-0.42995-0.0579-0.69453-0.17363-0.8599-0.44649-1.4221-0.81029-1.6867-1.0914-0.3638-0.38034-0.5457-0.90124-0.5457-1.5627 0-1.3891 0.22324-3.051 0.66973-4.9857 0.11576-0.47955 0.28939-0.71933 0.5209-0.71933 0.21497 0 0.78548 0.38034 1.7115 1.141 2.249-7.6564 4.3822-14.213 6.3996-19.67-3.6876 2.3151-6.5319 4.5475-8.5328 6.6973-0.46302 0.51263-0.69453 1.108-0.69453 1.7859 0 0.61185 0.19844 1.3064 0.59531 2.0836s0.59531 1.2237 0.59531 1.3394c0 0.28112-0.19017 0.42168-0.57051 0.42168-0.33073 0-0.57878-0.0909-0.74414-0.27285-2.0671-2.4309-3.1006-4.1093-3.1006-5.0354 0-0.97565 0.66146-2.0588 1.9844-3.2494 2.7947-2.5301 6.8461-5.3247 12.154-8.384 0.87643-2.0505 1.5131-3.0758 1.91-3.0758 0.29766 0 0.9095 0.44648 1.8355 1.3394l2.7285-1.2402c0.76068-0.33073 1.3808-0.49609 1.8604-0.49609 0.79375 0 1.8604 0.44648 3.1998 1.3394 0.06615-0.0661 0.17363-0.0992 0.32246-0.0992 0.92604 0 2.3399 0.8599 4.2416 2.5797 1.0253 0.94258 1.5379 1.9596 1.5379 3.051 0 0.26458-0.0248 0.5705-0.07441 0.91777z"/>
    </g>
    <text transform="matrix(1.0135 -.39026 .33089 .8593 0 0)" x="-35.009472" y="165.70497" fill="#ff0040" font-family="sans-serif" font-size="6.1209px" stroke="#f40034" stroke-width=".15302" style="line-height:1.25" xml:space="preserve"><tspan x="-35.009472" y="165.70497" fill="#ff0040" font-family="'Lucida Handwriting'" stroke="#f40034" stroke-width=".15302">Doc</tspan></text>
    <text transform="rotate(17.363)" x="63.900898" y="129.9509" fill="#000000" font-family="sans-serif" font-size="9.2407px" stroke-width=".23102" style="line-height:1.25" xml:space="preserve"><tspan x="63.900898" y="129.9509" font-family="'Lucida Handwriting'" stroke-width=".23102">yi</tspan></text>
   </g>
  </g>
  <text x="-25.850533" y="25.71665" fill="#000000" font-family="'Lucida Handwriting'" font-size="20.051px" stroke-width=".50128" style="line-height:1.25" xml:space="preserve"><tspan x="-25.850533" y="25.71665" fill="#1a1a1a">Dokumentasi</tspan><tspan x="-25.850533" y="52.038761" font-size="15.065px"/></text>
  <text x="-23.668388" y="39.744667" fill="#1a1a1a" font-family="'Lucida Handwriting'" font-size="9.5994px" stroke-width=".50128" style="line-height:1.25" xml:space="preserve"><tspan x="-23.668388" y="39.744667">membuat kita lebih baik</tspan><tspan x="-23.668388" y="52.346394"/></text>
  <g transform="matrix(1.3787 0 0 1.3787 22.241 -357.65)">
   <g transform="matrix(.74235 0 0 .74235 2.9939 139.31)">
    <g transform="matrix(1.0247 0 0 .97588 -16.859 4.5759)" fill="#f04" stroke-opacity=".5257" stroke-width=".9891" aria-label="D">
     <path d="m55.214 137.68c-0.51263 3.8365-1.7529 7.9788-3.7207 12.427-1.7859 4.0514-3.7703 7.5241-5.9531 10.418-2.1828 2.8773-13.513 2.1032-14.836 2.1197-1.6371 0-3.9688-1.017-6.9949-3.051-0.23151-0.16537-0.34727-0.35554-0.34727-0.57051 0-0.52917 0.30592-0.79375 0.91777-0.79375 0.16536 0 0.33073 0.0413 0.49609 0.12402 1.2402 0.77722 2.6128 1.2072 4.1176 1.2898 2.0671 0.0992 14.29-0.7141 17.515-6.8822 3.1915-6.0854 5.0436-11.518 5.5562-16.297 0.16536-1.5379-0.66146-2.6789-2.4805-3.423-0.44648-0.16536-0.81856-0.23151-1.1162-0.19844-3.1915 0.44649-6.2756 1.604-9.2521 3.4727-1.5544 3.7042-3.1254 8.0863-4.7129 13.146-1.7363 5.5232-2.9931 10.302-3.7703 14.337-0.16536 0.82683-0.51263 1.2402-1.0418 1.2402-0.19844 0-0.42995-0.0579-0.69453-0.17363-0.8599-0.44649-1.4221-0.81029-1.6867-1.0914-0.3638-0.38034-0.5457-0.90124-0.5457-1.5627 0-1.3891 0.22324-3.051 0.66973-4.9857 0.11576-0.47955 0.28939-0.71933 0.5209-0.71933 0.21497 0 0.78548 0.38034 1.7115 1.141 2.249-7.6564 4.3822-14.213 6.3996-19.67-3.6876 2.3151-6.5319 4.5475-8.5328 6.6973-0.46302 0.51263-0.69453 1.108-0.69453 1.7859 0 0.61185 0.19844 1.3064 0.59531 2.0836s0.59531 1.2237 0.59531 1.3394c0 0.28112-0.19017 0.42168-0.57051 0.42168-0.33073 0-0.57878-0.0909-0.74414-0.27285-2.0671-2.4309-3.1006-4.1093-3.1006-5.0354 0-0.97565 0.66146-2.0588 1.9844-3.2494 2.7947-2.5301 6.8461-5.3247 12.154-8.384 0.87643-2.0505 1.5131-3.0758 1.91-3.0758 0.29766 0 0.9095 0.44648 1.8355 1.3394l2.7285-1.2402c0.76068-0.33073 1.3808-0.49609 1.8604-0.49609 0.79375 0 1.8604 0.44648 3.1998 1.3394 0.06615-0.0661 0.17363-0.0992 0.32246-0.0992 0.92604 0 2.3399 0.8599 4.2416 2.5797 1.0253 0.94258 1.5379 1.9596 1.5379 3.051 0 0.26458-0.0248 0.5705-0.07441 0.91777z"/>
    </g>
    <text transform="matrix(1.0135 -.39026 .33089 .8593 0 0)" x="-35.009472" y="165.70497" fill="#ff0040" font-family="sans-serif" font-size="6.1209px" stroke="#f40034" stroke-width=".15302" style="line-height:1.25" xml:space="preserve"><tspan x="-35.009472" y="165.70497" fill="#ff0040" font-family="'Lucida Handwriting'" stroke="#f40034" stroke-width=".15302">Doc</tspan></text>
    <text transform="rotate(17.363)" x="63.900898" y="129.9509" fill="#000000" font-family="sans-serif" font-size="9.2407px" stroke-width=".23102" style="line-height:1.25" xml:space="preserve"><tspan x="63.900898" y="129.9509" font-family="'Lucida Handwriting'" stroke-width=".23102">yi</tspan></text>
   </g>
  </g>
  <g transform="translate(-156.27 71.18)">
   <rect x="94.273" y="184" width="40.19" height="40.19" ry="7.3228" fill="url(#linearGradient68542-0)" opacity=".50406" style="paint-order:stroke fill markers"/>
   <g transform="matrix(.74235 0 0 .74235 96.035 92.921)">
    <g transform="matrix(1.0247 0 0 .97588 -16.859 4.5759)" fill="#f04" stroke-opacity=".5257" stroke-width=".9891" aria-label="D">
     <path d="m55.214 137.68c-0.51263 3.8365-1.7529 7.9788-3.7207 12.427-1.7859 4.0514-3.7703 7.5241-5.9531 10.418-2.1828 2.8773-13.513 2.1032-14.836 2.1197-1.6371 0-3.9688-1.017-6.9949-3.051-0.23151-0.16537-0.34727-0.35554-0.34727-0.57051 0-0.52917 0.30592-0.79375 0.91777-0.79375 0.16536 0 0.33073 0.0413 0.49609 0.12402 1.2402 0.77722 2.6128 1.2072 4.1176 1.2898 2.0671 0.0992 14.29-0.7141 17.515-6.8822 3.1915-6.0854 5.0436-11.518 5.5562-16.297 0.16536-1.5379-0.66146-2.6789-2.4805-3.423-0.44648-0.16536-0.81856-0.23151-1.1162-0.19844-3.1915 0.44649-6.2756 1.604-9.2521 3.4727-1.5544 3.7042-3.1254 8.0863-4.7129 13.146-1.7363 5.5232-2.9931 10.302-3.7703 14.337-0.16536 0.82683-0.51263 1.2402-1.0418 1.2402-0.19844 0-0.42995-0.0579-0.69453-0.17363-0.8599-0.44649-1.4221-0.81029-1.6867-1.0914-0.3638-0.38034-0.5457-0.90124-0.5457-1.5627 0-1.3891 0.22324-3.051 0.66973-4.9857 0.11576-0.47955 0.28939-0.71933 0.5209-0.71933 0.21497 0 0.78548 0.38034 1.7115 1.141 2.249-7.6564 4.3822-14.213 6.3996-19.67-3.6876 2.3151-6.5319 4.5475-8.5328 6.6973-0.46302 0.51263-0.69453 1.108-0.69453 1.7859 0 0.61185 0.19844 1.3064 0.59531 2.0836s0.59531 1.2237 0.59531 1.3394c0 0.28112-0.19017 0.42168-0.57051 0.42168-0.33073 0-0.57878-0.0909-0.74414-0.27285-2.0671-2.4309-3.1006-4.1093-3.1006-5.0354 0-0.97565 0.66146-2.0588 1.9844-3.2494 2.7947-2.5301 6.8461-5.3247 12.154-8.384 0.87643-2.0505 1.5131-3.0758 1.91-3.0758 0.29766 0 0.9095 0.44648 1.8355 1.3394l2.7285-1.2402c0.76068-0.33073 1.3808-0.49609 1.8604-0.49609 0.79375 0 1.8604 0.44648 3.1998 1.3394 0.06615-0.0661 0.17363-0.0992 0.32246-0.0992 0.92604 0 2.3399 0.8599 4.2416 2.5797 1.0253 0.94258 1.5379 1.9596 1.5379 3.051 0 0.26458-0.0248 0.5705-0.07441 0.91777z"/>
    </g>
    <text transform="matrix(1.0135 -.39026 .33089 .8593 0 0)" x="-35.009472" y="165.70497" fill="#ff0040" font-family="sans-serif" font-size="6.1209px" stroke="#f40034" stroke-width=".15302" style="line-height:1.25" xml:space="preserve"><tspan x="-35.009472" y="165.70497" fill="#ff0040" font-family="'Lucida Handwriting'" stroke="#f40034" stroke-width=".15302">Doc</tspan></text>
    <text transform="rotate(17.363)" x="63.900898" y="129.9509" fill="#000000" font-family="sans-serif" font-size="9.2407px" stroke-width=".23102" style="line-height:1.25" xml:space="preserve"><tspan x="63.900898" y="129.9509" font-family="'Lucida Handwriting'" stroke-width=".23102">yi</tspan></text>
   </g>
  </g>
  <g transform="translate(-68.8 -45.64)">
   <rect x="96.729" y="133.51" width="40.19" height="40.19" ry="7.3228" fill="#005cff" style="paint-order:stroke fill markers"/>
   <g transform="matrix(.7607 0 0 .72444 85.977 45.829)" fill="#fff" stroke-opacity=".5257" stroke-width=".9891" aria-label="D">
    <path d="m55.214 137.68c-0.51263 3.8365-1.7529 7.9788-3.7207 12.427-1.7859 4.0514-3.7703 7.5241-5.9531 10.418-2.1828 2.8773-13.513 2.1032-14.836 2.1197-1.6371 0-3.9688-1.017-6.9949-3.051-0.23151-0.16537-0.34727-0.35554-0.34727-0.57051 0-0.52917 0.30592-0.79375 0.91777-0.79375 0.16536 0 0.33073 0.0413 0.49609 0.12402 1.2402 0.77722 2.6128 1.2072 4.1176 1.2898 2.0671 0.0992 14.29-0.7141 17.515-6.8822 3.1915-6.0854 5.0436-11.518 5.5562-16.297 0.16536-1.5379-0.66146-2.6789-2.4805-3.423-0.44648-0.16536-0.81856-0.23151-1.1162-0.19844-3.1915 0.44649-6.2756 1.604-9.2521 3.4727-1.5544 3.7042-3.1254 8.0863-4.7129 13.146-1.7363 5.5232-2.9931 10.302-3.7703 14.337-0.16536 0.82683-0.51263 1.2402-1.0418 1.2402-0.19844 0-0.42995-0.0579-0.69453-0.17363-0.8599-0.44649-1.4221-0.81029-1.6867-1.0914-0.3638-0.38034-0.5457-0.90124-0.5457-1.5627 0-1.3891 0.22324-3.051 0.66973-4.9857 0.11576-0.47955 0.28939-0.71933 0.5209-0.71933 0.21497 0 0.78548 0.38034 1.7115 1.141 2.249-7.6564 4.3822-14.213 6.3996-19.67-3.6876 2.3151-6.5319 4.5475-8.5328 6.6973-0.46302 0.51263-0.69453 1.108-0.69453 1.7859 0 0.61185 0.19844 1.3064 0.59531 2.0836s0.59531 1.2237 0.59531 1.3394c0 0.28112-0.19017 0.42168-0.57051 0.42168-0.33073 0-0.57878-0.0909-0.74414-0.27285-2.0671-2.4309-3.1006-4.1093-3.1006-5.0354 0-0.97565 0.66146-2.0588 1.9844-3.2494 2.7947-2.5301 6.8461-5.3247 12.154-8.384 0.87643-2.0505 1.5131-3.0758 1.91-3.0758 0.29766 0 0.9095 0.44648 1.8355 1.3394l2.7285-1.2402c0.76068-0.33073 1.3808-0.49609 1.8604-0.49609 0.79375 0 1.8604 0.44648 3.1998 1.3394 0.06615-0.0661 0.17363-0.0992 0.32246-0.0992 0.92604 0 2.3399 0.8599 4.2416 2.5797 1.0253 0.94258 1.5379 1.9596 1.5379 3.051 0 0.26458-0.0248 0.5705-0.07441 0.91777z" fill="#fff"/>
   </g>
   <text transform="matrix(1.0135 -.39026 .33089 .8593 0 0)" x="44.604088" y="204.45097" fill="#f9f9f9" font-family="sans-serif" font-size="4.5438px" stroke-width=".1136" style="line-height:1.25" xml:space="preserve"><tspan x="44.604088" y="204.45097" fill="#f9f9f9" font-family="'Lucida Handwriting'" stroke-width=".1136">Doc</tspan></text>
   <text transform="rotate(17.363)" x="154.10323" y="107.57405" fill="#f9f9f9" font-family="sans-serif" font-size="6.8598px" stroke-width=".1715" style="line-height:1.25" xml:space="preserve"><tspan x="154.10323" y="107.57405" fill="#f9f9f9" font-family="'Lucida Handwriting'" stroke-width=".1715">yi</tspan></text>
  </g>
  <g>
   <rect x="103.7" y="73.35" width="40.19" height="40.19" ry="7.3228" fill="#ff004d" style="paint-order:stroke fill markers"/>
   <g transform="matrix(.7607 0 0 .72444 92.943 -14.335)" fill="#fff" stroke-opacity=".5257" stroke-width=".9891" aria-label="D">
    <path d="m55.214 137.68c-0.51263 3.8365-1.7529 7.9788-3.7207 12.427-1.7859 4.0514-3.7703 7.5241-5.9531 10.418-2.1828 2.8773-13.513 2.1032-14.836 2.1197-1.6371 0-3.9688-1.017-6.9949-3.051-0.23151-0.16537-0.34727-0.35554-0.34727-0.57051 0-0.52917 0.30592-0.79375 0.91777-0.79375 0.16536 0 0.33073 0.0413 0.49609 0.12402 1.2402 0.77722 2.6128 1.2072 4.1176 1.2898 2.0671 0.0992 14.29-0.7141 17.515-6.8822 3.1915-6.0854 5.0436-11.518 5.5562-16.297 0.16536-1.5379-0.66146-2.6789-2.4805-3.423-0.44648-0.16536-0.81856-0.23151-1.1162-0.19844-3.1915 0.44649-6.2756 1.604-9.2521 3.4727-1.5544 3.7042-3.1254 8.0863-4.7129 13.146-1.7363 5.5232-2.9931 10.302-3.7703 14.337-0.16536 0.82683-0.51263 1.2402-1.0418 1.2402-0.19844 0-0.42995-0.0579-0.69453-0.17363-0.8599-0.44649-1.4221-0.81029-1.6867-1.0914-0.3638-0.38034-0.5457-0.90124-0.5457-1.5627 0-1.3891 0.22324-3.051 0.66973-4.9857 0.11576-0.47955 0.28939-0.71933 0.5209-0.71933 0.21497 0 0.78548 0.38034 1.7115 1.141 2.249-7.6564 4.3822-14.213 6.3996-19.67-3.6876 2.3151-6.5319 4.5475-8.5328 6.6973-0.46302 0.51263-0.69453 1.108-0.69453 1.7859 0 0.61185 0.19844 1.3064 0.59531 2.0836s0.59531 1.2237 0.59531 1.3394c0 0.28112-0.19017 0.42168-0.57051 0.42168-0.33073 0-0.57878-0.0909-0.74414-0.27285-2.0671-2.4309-3.1006-4.1093-3.1006-5.0354 0-0.97565 0.66146-2.0588 1.9844-3.2494 2.7947-2.5301 6.8461-5.3247 12.154-8.384 0.87643-2.0505 1.5131-3.0758 1.91-3.0758 0.29766 0 0.9095 0.44648 1.8355 1.3394l2.7285-1.2402c0.76068-0.33073 1.3808-0.49609 1.8604-0.49609 0.79375 0 1.8604 0.44648 3.1998 1.3394 0.06615-0.0661 0.17363-0.0992 0.32246-0.0992 0.92604 0 2.3399 0.8599 4.2416 2.5797 1.0253 0.94258 1.5379 1.9596 1.5379 3.051 0 0.26458-0.0248 0.5705-0.07441 0.91777z" fill="#fff"/>
   </g>
   <text transform="matrix(1.0135 -.39026 .33089 .8593 0 0)" x="70.49765" y="146.19548" fill="#f9f9f9" font-family="sans-serif" font-size="4.5438px" stroke-width=".1136" style="line-height:1.25" xml:space="preserve"><tspan x="70.49765" y="146.19548" fill="#f9f9f9" font-family="'Lucida Handwriting'" stroke-width=".1136">Doc</tspan></text>
   <text transform="rotate(17.363)" x="142.79726" y="48.072899" fill="#f9f9f9" font-family="sans-serif" font-size="6.8598px" stroke-width=".1715" style="line-height:1.25" xml:space="preserve"><tspan x="142.79726" y="48.072899" fill="#f9f9f9" font-family="'Lucida Handwriting'" stroke-width=".1715">yi</tspan></text>
  </g>
  <path transform="matrix(.28496 0 0 .28496 15.975 .12219)" d="m215.28 759.15-45.214 20.861-46.722-17.22-20.861-45.214 17.22-46.722 45.214-20.861 46.722 17.22 20.861 45.214z" fill="#ccc" opacity=".50406" style="paint-order:stroke fill markers"/>
  <text x="178.70177" y="182.07352" fill="#000000" font-family="sans-serif" font-size="10.583px" stroke-width=".26458" style="line-height:1.25" xml:space="preserve"><tspan x="178.70177" y="182.07352" stroke-width=".26458"/></text>
 </g>
</svg>
